<svg xmlns="http://www.w3.org/2000/svg" width="147" height="147" viewBox="0 0 147 147" text-rendering="geometricPrecision" font-family="sans-serif">
<g transform="translate(0, 0)">
  <g id="Root">
    <g id="ReusableComposeNode">
      <rect x="0" y="0" width="147" height="147" fill="#FEF7FF"/>
      <g id="ReusableComposeNode">
        <g transform="translate(42 42) scale(2.62 2.62)">
          <path d="M9.25 22 L8.85 18.8 Q 8.53 18.68 8.24 18.5 T 0 0 L4.7 19.38 L1.95 14.63 L4.53 12.68 Q 4.5 12.5 4.5 12.34 q 0 -0.16 0 -0.34 t 0 0 T 0 0 L1.95 9.38 L4.7 4.63 L7.68 5.88 Q 7.95 5.68 8.25 5.5 T 0 0 L9.25 2 h5.5 l0.4 3.2 q 0.33 0.13 0.61 0.3 t 0 0 L19.3 4.63 l2.75 4.75 l-2.57 1.95 q 0.02 0.18 0.02 0.34 t 0 0 t 0 0 t 0 0 l2.57 1.95 l-2.75 4.75 L16.33 18.13 q -0.27 0.2 -0.57 0.38 t 0 0 L14.75 22 H9.25 Z M11 20 h1.98 l0.35 -2.65 q 0.78 -0.2 1.44 -0.59 t 0 0 l2.47 1.03 l0.98 -1.7 L17.28 13.52 q 0.13 -0.35 0.17 -0.74 T 0 0 T 0 0 Q 17.4 10.83 17.28 10.48 L19.43 8.85 L18.45 7.15 L15.98 8.2 Q 15.43 7.63 14.76 7.24 T 0 0 L13 4 H11.03 L10.68 6.65 Q 9.9 6.85 9.24 7.24 T 0 0 L5.55 7.15 L4.58 8.85 l2.15 1.6 Q 6.6 10.83 6.55 11.2 T 0 0 q 0 0.4 0.05 0.77 t 0 0 L4.58 15.15 l0.98 1.7 L8.03 15.8 q 0.55 0.58 1.21 0.96 t 0 0 L11 20 Z m1.05 -4.5 q 1.45 0 2.47 -1.03 T 0 0 T 0 0 T 0 0 q -1.47 0 -2.49 1.02 T 0 0 t 0 0 t 0 0 Z M12 12 Z" fill="#1D1B20"/>
        </g>
      </g>
    </g>
  </g>
</g>
</svg>
