<svg xmlns="http://www.w3.org/2000/svg" viewBox="0 0 1081 3321" width="1081" height="3321" role="img" aria-label="ComponentList layout wireframe">
  <title>ComponentList — layout wireframe (slots + tokens)</title>
  <rect width="1081" height="3321" fill="#ffffff"/>
  <g>
    <rect x="0" y="0" width="1081" height="2401" fill="none" fill-opacity="0" stroke="#5B6470" stroke-width="1" stroke-opacity="0.5"/>
  </g>
  <g>
    <rect x="0" y="0" width="1081" height="2401" fill="none" fill-opacity="0" stroke="#2E7D6B" stroke-width="1" stroke-opacity="0.5"/>
  </g>
  <g>
    <rect x="0" y="0" width="1081" height="2401" fill="#FFFFFF" fill-opacity="1" stroke="#8E6BA8" stroke-width="1.5" stroke-opacity="1"/>
    <text x="3" y="12" font-family="system-ui, sans-serif" font-size="9" fill="#8E6BA8">#FFFFFFFF</text>
  </g>
  <g>
    <rect x="0" y="0" width="1081" height="2401" fill="none" fill-opacity="0" stroke="#B0813B" stroke-width="1" stroke-opacity="0.5"/>
  </g>
  <g>
    <rect x="0" y="168" width="1081" height="2233" fill="none" fill-opacity="0" stroke="#3B72A8" stroke-width="1" stroke-opacity="0.5"/>
  </g>
  <g>
    <rect x="0" y="168" width="1081" height="1023" fill="none" fill-opacity="0" stroke="#A85B6B" stroke-width="1" stroke-opacity="0.5"/>
  </g>
  <g>
    <rect x="42" y="210" width="997" height="63" fill="none" fill-opacity="0" stroke="#4F8A4A" stroke-width="1" stroke-opacity="0.5"/>
  </g>
  <g>
    <path d="M84,294 H997 A42,42 0 0 1 1039,336 V1149 A42,42 0 0 1 997,1191 H84 A42,42 0 0 1 42,1149 V336 A42,42 0 0 1 84,294 Z" fill="#FAFAFA" fill-opacity="1" stroke="#4F8A4A" stroke-width="1.5" stroke-opacity="1"/>
    <text x="45" y="306" font-family="system-ui, sans-serif" font-size="9" fill="#4F8A4A">#FFFAFAFA  pad ·</text>
  </g>
  <g>
    <rect x="42" y="294" width="997" height="897" fill="none" fill-opacity="0" stroke="#7A7A33" stroke-width="1" stroke-opacity="0.5"/>
  </g>
  <g>
    <rect x="42" y="294" width="997" height="897" fill="none" fill-opacity="0" stroke="#5B6470" stroke-width="1" stroke-opacity="0.5"/>
  </g>
  <g>
    <rect x="84" y="336" width="913" height="63" fill="none" fill-opacity="0" stroke="#2E7D6B" stroke-width="1" stroke-opacity="0.5"/>
  </g>
  <g>
    <rect x="84" y="336" width="85" height="63" fill="none" fill-opacity="0" stroke="#8E6BA8" stroke-width="1" stroke-opacity="0.5"/>
  </g>
  <g>
    <rect x="934" y="336" width="63" height="63" fill="none" fill-opacity="0" stroke="#8E6BA8" stroke-width="1" stroke-opacity="0.5"/>
  </g>
  <g>
    <rect x="84" y="441" width="913" height="3" fill="none" fill-opacity="0" stroke="#2E7D6B" stroke-width="1" stroke-opacity="0.5"/>
  </g>
  <g>
    <rect x="84" y="486" width="913" height="63" fill="none" fill-opacity="0" stroke="#2E7D6B" stroke-width="1" stroke-opacity="0.5"/>
  </g>
  <g>
    <rect x="84" y="486" width="153" height="63" fill="none" fill-opacity="0" stroke="#8E6BA8" stroke-width="1" stroke-opacity="0.5"/>
  </g>
  <g>
    <rect x="934" y="486" width="63" height="63" fill="none" fill-opacity="0" stroke="#8E6BA8" stroke-width="1" stroke-opacity="0.5"/>
  </g>
  <g>
    <rect x="84" y="591" width="913" height="3" fill="none" fill-opacity="0" stroke="#2E7D6B" stroke-width="1" stroke-opacity="0.5"/>
  </g>
  <g>
    <rect x="84" y="636" width="913" height="63" fill="none" fill-opacity="0" stroke="#2E7D6B" stroke-width="1" stroke-opacity="0.5"/>
  </g>
  <g>
    <rect x="84" y="636" width="75" height="63" fill="none" fill-opacity="0" stroke="#8E6BA8" stroke-width="1" stroke-opacity="0.5"/>
  </g>
  <g>
    <rect x="934" y="636" width="63" height="63" fill="none" fill-opacity="0" stroke="#8E6BA8" stroke-width="1" stroke-opacity="0.5"/>
  </g>
  <g>
    <rect x="84" y="741" width="913" height="3" fill="none" fill-opacity="0" stroke="#2E7D6B" stroke-width="1" stroke-opacity="0.5"/>
  </g>
  <g>
    <rect x="84" y="786" width="913" height="63" fill="none" fill-opacity="0" stroke="#2E7D6B" stroke-width="1" stroke-opacity="0.5"/>
  </g>
  <g>
    <rect x="84" y="786" width="94" height="63" fill="none" fill-opacity="0" stroke="#8E6BA8" stroke-width="1" stroke-opacity="0.5"/>
  </g>
  <g>
    <rect x="934" y="786" width="63" height="63" fill="none" fill-opacity="0" stroke="#8E6BA8" stroke-width="1" stroke-opacity="0.5"/>
  </g>
  <g>
    <rect x="84" y="891" width="913" height="3" fill="none" fill-opacity="0" stroke="#2E7D6B" stroke-width="1" stroke-opacity="0.5"/>
  </g>
  <g>
    <rect x="84" y="936" width="913" height="63" fill="none" fill-opacity="0" stroke="#2E7D6B" stroke-width="1" stroke-opacity="0.5"/>
  </g>
  <g>
    <rect x="84" y="936" width="97" height="63" fill="none" fill-opacity="0" stroke="#8E6BA8" stroke-width="1" stroke-opacity="0.5"/>
  </g>
  <g>
    <rect x="934" y="936" width="63" height="63" fill="none" fill-opacity="0" stroke="#8E6BA8" stroke-width="1" stroke-opacity="0.5"/>
  </g>
  <g>
    <rect x="84" y="1041" width="913" height="3" fill="none" fill-opacity="0" stroke="#2E7D6B" stroke-width="1" stroke-opacity="0.5"/>
  </g>
  <g>
    <rect x="84" y="1086" width="913" height="63" fill="none" fill-opacity="0" stroke="#2E7D6B" stroke-width="1" stroke-opacity="0.5"/>
  </g>
  <g>
    <rect x="84" y="1086" width="126" height="63" fill="none" fill-opacity="0" stroke="#8E6BA8" stroke-width="1" stroke-opacity="0.5"/>
  </g>
  <g>
    <rect x="934" y="1086" width="63" height="63" fill="none" fill-opacity="0" stroke="#8E6BA8" stroke-width="1" stroke-opacity="0.5"/>
  </g>
  <g>
    <rect x="0" y="1233" width="1081" height="1023" fill="none" fill-opacity="0" stroke="#A85B6B" stroke-width="1" stroke-opacity="0.5"/>
  </g>
  <g>
    <rect x="42" y="1275" width="997" height="63" fill="none" fill-opacity="0" stroke="#4F8A4A" stroke-width="1" stroke-opacity="0.5"/>
  </g>
  <g>
    <path d="M84,1359 H997 A42,42 0 0 1 1039,1401 V2214 A42,42 0 0 1 997,2256 H84 A42,42 0 0 1 42,2214 V1401 A42,42 0 0 1 84,1359 Z" fill="#FAFAFA" fill-opacity="1" stroke="#4F8A4A" stroke-width="1.5" stroke-opacity="1"/>
    <text x="45" y="1371" font-family="system-ui, sans-serif" font-size="9" fill="#4F8A4A">#FFFAFAFA  pad ·</text>
  </g>
  <g>
    <rect x="42" y="1359" width="997" height="897" fill="none" fill-opacity="0" stroke="#7A7A33" stroke-width="1" stroke-opacity="0.5"/>
  </g>
  <g>
    <rect x="42" y="1359" width="997" height="897" fill="none" fill-opacity="0" stroke="#5B6470" stroke-width="1" stroke-opacity="0.5"/>
  </g>
  <g>
    <rect x="84" y="1401" width="913" height="63" fill="none" fill-opacity="0" stroke="#2E7D6B" stroke-width="1" stroke-opacity="0.5"/>
  </g>
  <g>
    <rect x="84" y="1401" width="88" height="63" fill="none" fill-opacity="0" stroke="#8E6BA8" stroke-width="1" stroke-opacity="0.5"/>
  </g>
  <g>
    <rect x="934" y="1401" width="63" height="63" fill="none" fill-opacity="0" stroke="#8E6BA8" stroke-width="1" stroke-opacity="0.5"/>
  </g>
  <g>
    <rect x="84" y="1506" width="913" height="3" fill="none" fill-opacity="0" stroke="#2E7D6B" stroke-width="1" stroke-opacity="0.5"/>
  </g>
  <g>
    <rect x="84" y="1551" width="913" height="63" fill="none" fill-opacity="0" stroke="#2E7D6B" stroke-width="1" stroke-opacity="0.5"/>
  </g>
  <g>
    <rect x="84" y="1551" width="126" height="63" fill="none" fill-opacity="0" stroke="#8E6BA8" stroke-width="1" stroke-opacity="0.5"/>
  </g>
  <g>
    <rect x="934" y="1551" width="63" height="63" fill="none" fill-opacity="0" stroke="#8E6BA8" stroke-width="1" stroke-opacity="0.5"/>
  </g>
  <g>
    <rect x="84" y="1656" width="913" height="3" fill="none" fill-opacity="0" stroke="#2E7D6B" stroke-width="1" stroke-opacity="0.5"/>
  </g>
  <g>
    <rect x="84" y="1701" width="913" height="63" fill="none" fill-opacity="0" stroke="#2E7D6B" stroke-width="1" stroke-opacity="0.5"/>
  </g>
  <g>
    <rect x="84" y="1701" width="86" height="63" fill="none" fill-opacity="0" stroke="#8E6BA8" stroke-width="1" stroke-opacity="0.5"/>
  </g>
  <g>
    <rect x="934" y="1701" width="63" height="63" fill="none" fill-opacity="0" stroke="#8E6BA8" stroke-width="1" stroke-opacity="0.5"/>
  </g>
  <g>
    <rect x="84" y="1806" width="913" height="3" fill="none" fill-opacity="0" stroke="#2E7D6B" stroke-width="1" stroke-opacity="0.5"/>
  </g>
  <g>
    <rect x="84" y="1851" width="913" height="63" fill="none" fill-opacity="0" stroke="#2E7D6B" stroke-width="1" stroke-opacity="0.5"/>
  </g>
  <g>
    <rect x="84" y="1851" width="141" height="63" fill="none" fill-opacity="0" stroke="#8E6BA8" stroke-width="1" stroke-opacity="0.5"/>
  </g>
  <g>
    <rect x="934" y="1851" width="63" height="63" fill="none" fill-opacity="0" stroke="#8E6BA8" stroke-width="1" stroke-opacity="0.5"/>
  </g>
  <g>
    <rect x="84" y="1956" width="913" height="3" fill="none" fill-opacity="0" stroke="#2E7D6B" stroke-width="1" stroke-opacity="0.5"/>
  </g>
  <g>
    <rect x="84" y="2001" width="913" height="63" fill="none" fill-opacity="0" stroke="#2E7D6B" stroke-width="1" stroke-opacity="0.5"/>
  </g>
  <g>
    <rect x="84" y="2001" width="116" height="63" fill="none" fill-opacity="0" stroke="#8E6BA8" stroke-width="1" stroke-opacity="0.5"/>
  </g>
  <g>
    <rect x="934" y="2001" width="63" height="63" fill="none" fill-opacity="0" stroke="#8E6BA8" stroke-width="1" stroke-opacity="0.5"/>
  </g>
  <g>
    <rect x="84" y="2106" width="913" height="3" fill="none" fill-opacity="0" stroke="#2E7D6B" stroke-width="1" stroke-opacity="0.5"/>
  </g>
  <g>
    <rect x="84" y="2151" width="913" height="63" fill="none" fill-opacity="0" stroke="#2E7D6B" stroke-width="1" stroke-opacity="0.5"/>
  </g>
  <g>
    <rect x="84" y="2151" width="243" height="63" fill="none" fill-opacity="0" stroke="#8E6BA8" stroke-width="1" stroke-opacity="0.5"/>
  </g>
  <g>
    <rect x="934" y="2151" width="63" height="63" fill="none" fill-opacity="0" stroke="#8E6BA8" stroke-width="1" stroke-opacity="0.5"/>
  </g>
  <g>
    <rect x="0" y="2298" width="1081" height="1023" fill="none" fill-opacity="0" stroke="#A85B6B" stroke-width="1" stroke-opacity="0.5"/>
  </g>
  <g>
    <rect x="42" y="2340" width="997" height="63" fill="none" fill-opacity="0" stroke="#4F8A4A" stroke-width="1" stroke-opacity="0.5"/>
  </g>
  <g>
    <path d="M84,2424 H997 A42,42 0 0 1 1039,2466 V3279 A42,42 0 0 1 997,3321 H84 A42,42 0 0 1 42,3279 V2466 A42,42 0 0 1 84,2424 Z" fill="#FAFAFA" fill-opacity="1" stroke="#4F8A4A" stroke-width="1.5" stroke-opacity="1"/>
    <text x="45" y="2436" font-family="system-ui, sans-serif" font-size="9" fill="#4F8A4A">#FFFAFAFA  pad ·</text>
  </g>
  <g>
    <rect x="42" y="2424" width="997" height="897" fill="none" fill-opacity="0" stroke="#7A7A33" stroke-width="1" stroke-opacity="0.5"/>
  </g>
  <g>
    <rect x="42" y="2424" width="997" height="897" fill="none" fill-opacity="0" stroke="#5B6470" stroke-width="1" stroke-opacity="0.5"/>
  </g>
  <g>
    <rect x="84" y="2466" width="913" height="63" fill="none" fill-opacity="0" stroke="#2E7D6B" stroke-width="1" stroke-opacity="0.5"/>
  </g>
  <g>
    <rect x="84" y="2466" width="132" height="63" fill="none" fill-opacity="0" stroke="#8E6BA8" stroke-width="1" stroke-opacity="0.5"/>
  </g>
  <g>
    <rect x="934" y="2466" width="63" height="63" fill="none" fill-opacity="0" stroke="#8E6BA8" stroke-width="1" stroke-opacity="0.5"/>
  </g>
  <g>
    <rect x="84" y="2571" width="913" height="3" fill="none" fill-opacity="0" stroke="#2E7D6B" stroke-width="1" stroke-opacity="0.5"/>
  </g>
  <g>
    <rect x="84" y="2616" width="913" height="63" fill="none" fill-opacity="0" stroke="#2E7D6B" stroke-width="1" stroke-opacity="0.5"/>
  </g>
  <g>
    <rect x="84" y="2616" width="199" height="63" fill="none" fill-opacity="0" stroke="#8E6BA8" stroke-width="1" stroke-opacity="0.5"/>
  </g>
  <g>
    <rect x="934" y="2616" width="63" height="63" fill="none" fill-opacity="0" stroke="#8E6BA8" stroke-width="1" stroke-opacity="0.5"/>
  </g>
  <g>
    <rect x="84" y="2721" width="913" height="3" fill="none" fill-opacity="0" stroke="#2E7D6B" stroke-width="1" stroke-opacity="0.5"/>
  </g>
  <g>
    <rect x="84" y="2766" width="913" height="63" fill="none" fill-opacity="0" stroke="#2E7D6B" stroke-width="1" stroke-opacity="0.5"/>
  </g>
  <g>
    <rect x="84" y="2766" width="117" height="63" fill="none" fill-opacity="0" stroke="#8E6BA8" stroke-width="1" stroke-opacity="0.5"/>
  </g>
  <g>
    <rect x="934" y="2766" width="63" height="63" fill="none" fill-opacity="0" stroke="#8E6BA8" stroke-width="1" stroke-opacity="0.5"/>
  </g>
  <g>
    <rect x="84" y="2871" width="913" height="3" fill="none" fill-opacity="0" stroke="#2E7D6B" stroke-width="1" stroke-opacity="0.5"/>
  </g>
  <g>
    <rect x="84" y="2916" width="913" height="63" fill="none" fill-opacity="0" stroke="#2E7D6B" stroke-width="1" stroke-opacity="0.5"/>
  </g>
  <g>
    <rect x="84" y="2916" width="186" height="63" fill="none" fill-opacity="0" stroke="#8E6BA8" stroke-width="1" stroke-opacity="0.5"/>
  </g>
  <g>
    <rect x="934" y="2916" width="63" height="63" fill="none" fill-opacity="0" stroke="#8E6BA8" stroke-width="1" stroke-opacity="0.5"/>
  </g>
  <g>
    <rect x="84" y="3021" width="913" height="3" fill="none" fill-opacity="0" stroke="#2E7D6B" stroke-width="1" stroke-opacity="0.5"/>
  </g>
  <g>
    <rect x="84" y="3066" width="913" height="63" fill="none" fill-opacity="0" stroke="#2E7D6B" stroke-width="1" stroke-opacity="0.5"/>
  </g>
  <g>
    <rect x="84" y="3066" width="297" height="63" fill="none" fill-opacity="0" stroke="#8E6BA8" stroke-width="1" stroke-opacity="0.5"/>
  </g>
  <g>
    <rect x="934" y="3066" width="63" height="63" fill="none" fill-opacity="0" stroke="#8E6BA8" stroke-width="1" stroke-opacity="0.5"/>
  </g>
  <g>
    <rect x="84" y="3171" width="913" height="3" fill="none" fill-opacity="0" stroke="#2E7D6B" stroke-width="1" stroke-opacity="0.5"/>
  </g>
  <g>
    <rect x="84" y="3216" width="913" height="63" fill="none" fill-opacity="0" stroke="#2E7D6B" stroke-width="1" stroke-opacity="0.5"/>
  </g>
  <g>
    <rect x="84" y="3216" width="266" height="63" fill="none" fill-opacity="0" stroke="#8E6BA8" stroke-width="1" stroke-opacity="0.5"/>
  </g>
  <g>
    <rect x="934" y="3216" width="63" height="63" fill="none" fill-opacity="0" stroke="#8E6BA8" stroke-width="1" stroke-opacity="0.5"/>
  </g>
  <g>
    <rect x="0" y="0" width="1081" height="168" fill="none" fill-opacity="0" stroke="#3B72A8" stroke-width="1" stroke-opacity="0.5"/>
  </g>
  <g>
    <rect x="0" y="0" width="1081" height="168" fill="none" fill-opacity="0" stroke="#A85B6B" stroke-width="1" stroke-opacity="0.5"/>
  </g>
  <g>
    <rect x="43" y="47" width="461" height="74" fill="none" fill-opacity="0" stroke="#4F8A4A" stroke-width="1" stroke-opacity="0.5"/>
  </g>
  <g>
    <rect x="43" y="47" width="461" height="74" fill="none" fill-opacity="0" stroke="#7A7A33" stroke-width="1" stroke-opacity="0.5"/>
  </g>
</svg>
