<svg xmlns="http://www.w3.org/2000/svg" viewBox="0 0 1081 2401" width="1081" height="2401" role="img" aria-label="Row layout wireframe">
  <title>Row — layout wireframe (slots + tokens)</title>
  <rect width="1081" height="2401" fill="#ffffff"/>
  <g>
    <rect x="0" y="0" width="1081" height="2401" fill="none" fill-opacity="0" stroke="#5B6470" stroke-width="1" stroke-opacity="0.5"/>
  </g>
  <g>
    <rect x="0" y="0" width="1081" height="2401" fill="none" fill-opacity="0" stroke="#2E7D6B" stroke-width="1" stroke-opacity="0.5"/>
  </g>
  <g>
    <rect x="0" y="0" width="1081" height="2401" fill="#FFFFFF" fill-opacity="1" stroke="#8E6BA8" stroke-width="1.5" stroke-opacity="1"/>
    <text x="3" y="12" font-family="system-ui, sans-serif" font-size="9" fill="#8E6BA8">#FFFFFFFF</text>
  </g>
  <g>
    <rect x="42" y="0" width="997" height="2401" fill="none" fill-opacity="0" stroke="#B0813B" stroke-width="1" stroke-opacity="0.5"/>
  </g>
  <g>
    <path d="M84,21 H997 A42,42 0 0 1 1039,63 V609 A42,42 0 0 1 997,651 H84 A42,42 0 0 1 42,609 V63 A42,42 0 0 1 84,21 Z" fill="#FAFAFA" fill-opacity="1" stroke="#3B72A8" stroke-width="1.5" stroke-opacity="1"/>
    <text x="45" y="33" font-family="system-ui, sans-serif" font-size="9" fill="#3B72A8">#FFFAFAFA  pad ·</text>
  </g>
  <g>
    <rect x="42" y="21" width="997" height="630" fill="none" fill-opacity="0" stroke="#A85B6B" stroke-width="1" stroke-opacity="0.5"/>
  </g>
  <g>
    <rect x="84" y="63" width="913" height="546" fill="none" fill-opacity="0" stroke="#4F8A4A" stroke-width="1" stroke-opacity="0.5"/>
  </g>
  <g>
    <rect x="84" y="262" width="913" height="148" fill="none" fill-opacity="0" stroke="#7A7A33" stroke-width="1" stroke-opacity="0.5"/>
  </g>
  <g>
    <rect x="84" y="262" width="547" height="148" fill="none" fill-opacity="0" stroke="#5B6470" stroke-width="1" stroke-opacity="0.5"/>
  </g>
  <g>
    <rect x="84" y="262" width="294" height="148" fill="none" fill-opacity="0" stroke="#2E7D6B" stroke-width="1" stroke-opacity="0.5"/>
  </g>
  <g>
    <rect x="84" y="262" width="294" height="148" fill="none" fill-opacity="0" stroke="#8E6BA8" stroke-width="1" stroke-opacity="0.5"/>
  </g>
  <g>
    <rect x="84" y="262" width="294" height="148" fill="none" fill-opacity="0" stroke="#B0813B" stroke-width="1" stroke-opacity="0.5"/>
  </g>
  <g>
    <path d="M136.5,284 H325.5 A52.5,52.5 0 0 1 378,336.5 V336.5 A52.5,52.5 0 0 1 325.5,389 H136.5 A52.5,52.5 0 0 1 84,336.5 V336.5 A52.5,52.5 0 0 1 136.5,284 Z" fill="#144D2A" fill-opacity="1" stroke="#3B72A8" stroke-width="1.5" stroke-opacity="1"/>
    <text x="87" y="296" font-family="system-ui, sans-serif" font-size="9" fill="#3B72A8">#FF144D2A  pad ·</text>
  </g>
  <g>
    <rect x="147" y="305" width="168" height="63" fill="none" fill-opacity="0" stroke="#A85B6B" stroke-width="1" stroke-opacity="0.5"/>
  </g>
  <g>
    <rect x="147" y="305" width="168" height="63" fill="none" fill-opacity="0" stroke="#4F8A4A" stroke-width="1" stroke-opacity="0.5"/>
  </g>
  <g>
    <rect x="147" y="305" width="168" height="63" fill="none" fill-opacity="0" stroke="#7A7A33" stroke-width="1" stroke-opacity="0.5"/>
  </g>
  <g>
    <rect x="147" y="305" width="168" height="63" fill="none" fill-opacity="0" stroke="#5B6470" stroke-width="1" stroke-opacity="0.5"/>
  </g>
  <g>
    <rect x="399" y="262" width="232" height="148" fill="none" fill-opacity="0" stroke="#2E7D6B" stroke-width="1" stroke-opacity="0.5"/>
  </g>
  <g>
    <rect x="399" y="262" width="232" height="148" fill="none" fill-opacity="0" stroke="#8E6BA8" stroke-width="1" stroke-opacity="0.5"/>
  </g>
  <g>
    <rect x="399" y="262" width="232" height="148" fill="none" fill-opacity="0" stroke="#B0813B" stroke-width="1" stroke-opacity="0.5"/>
  </g>
  <g>
    <path d="M451.5,284 H578.5 A52.5,52.5 0 0 1 631,336.5 V336.5 A52.5,52.5 0 0 1 578.5,389 H451.5 A52.5,52.5 0 0 1 399,336.5 V336.5 A52.5,52.5 0 0 1 451.5,284 Z" fill="none" fill-opacity="0" stroke="#3B72A8" stroke-width="1.5" stroke-opacity="1"/>
    <text x="402" y="296" font-family="system-ui, sans-serif" font-size="9" fill="#3B72A8">pad ·</text>
  </g>
  <g>
    <rect x="431" y="305" width="168" height="63" fill="none" fill-opacity="0" stroke="#A85B6B" stroke-width="1" stroke-opacity="0.5"/>
  </g>
  <g>
    <rect x="431" y="305" width="168" height="63" fill="none" fill-opacity="0" stroke="#4F8A4A" stroke-width="1" stroke-opacity="0.5"/>
  </g>
  <g>
    <rect x="431" y="305" width="168" height="63" fill="none" fill-opacity="0" stroke="#7A7A33" stroke-width="1" stroke-opacity="0.5"/>
  </g>
  <g>
    <rect x="431" y="305" width="168" height="63" fill="none" fill-opacity="0" stroke="#5B6470" stroke-width="1" stroke-opacity="0.5"/>
  </g>
  <g>
    <rect x="42" y="693" width="84" height="63" fill="none" fill-opacity="0" stroke="#3B72A8" stroke-width="1" stroke-opacity="0.5"/>
  </g>
  <g>
    <rect x="42" y="777" width="997" height="1624" fill="none" fill-opacity="0" stroke="#3B72A8" stroke-width="1" stroke-opacity="0.5"/>
  </g>
  <g>
    <path d="M84,777 H997 A42,42 0 0 1 1039,819 V1371 A42,42 0 0 1 997,1413 H84 A42,42 0 0 1 42,1371 V819 A42,42 0 0 1 84,777 Z" fill="#FAFAFA" fill-opacity="1" stroke="#A85B6B" stroke-width="1.5" stroke-opacity="1"/>
    <text x="45" y="789" font-family="system-ui, sans-serif" font-size="9" fill="#A85B6B">#FFFAFAFA</text>
  </g>
  <g>
    <rect x="42" y="777" width="997" height="636" fill="none" fill-opacity="0" stroke="#4F8A4A" stroke-width="1" stroke-opacity="0.5"/>
  </g>
  <g>
    <rect x="84" y="819" width="913" height="552" fill="none" fill-opacity="0" stroke="#7A7A33" stroke-width="1" stroke-opacity="0.5"/>
  </g>
  <g>
    <rect x="84" y="819" width="533" height="53" fill="none" fill-opacity="0" stroke="#5B6470" stroke-width="1" stroke-opacity="0.5"/>
  </g>
  <g>
    <rect x="84" y="877" width="813" height="42" fill="none" fill-opacity="0" stroke="#5B6470" stroke-width="1" stroke-opacity="0.5"/>
  </g>
  <g>
    <rect x="84" y="951" width="913" height="420" fill="none" fill-opacity="0" stroke="#5B6470" stroke-width="1" stroke-opacity="0.5"/>
  </g>
  <g>
    <path d="M126,972 H220 A42,42 0 0 1 262,1014 V1014 A42,42 0 0 1 220,1056 H126 A42,42 0 0 1 84,1014 V1014 A42,42 0 0 1 126,972 Z" fill="none" fill-opacity="0" stroke="#C5C6CA" stroke-width="1.5" stroke-opacity="1"/>
    <text x="87" y="984" font-family="system-ui, sans-serif" font-size="9" fill="#C5C6CA">◻ #FFC5C6CA</text>
  </g>
  <g>
    <rect x="105" y="972" width="136" height="84" fill="none" fill-opacity="0" stroke="#8E6BA8" stroke-width="1" stroke-opacity="0.5"/>
  </g>
  <g>
    <rect x="126" y="993" width="94" height="42" fill="none" fill-opacity="0" stroke="#B0813B" stroke-width="1" stroke-opacity="0.5"/>
  </g>
  <g>
    <rect x="126" y="993" width="94" height="42" fill="none" fill-opacity="0" stroke="#3B72A8" stroke-width="1" stroke-opacity="0.5"/>
  </g>
  <g>
    <path d="M325,972 H379 A42,42 0 0 1 421,1014 V1014 A42,42 0 0 1 379,1056 H325 A42,42 0 0 1 283,1014 V1014 A42,42 0 0 1 325,972 Z" fill="none" fill-opacity="0" stroke="#C5C6CA" stroke-width="1.5" stroke-opacity="1"/>
    <text x="286" y="984" font-family="system-ui, sans-serif" font-size="9" fill="#C5C6CA">◻ #FFC5C6CA</text>
  </g>
  <g>
    <rect x="304" y="972" width="96" height="84" fill="none" fill-opacity="0" stroke="#8E6BA8" stroke-width="1" stroke-opacity="0.5"/>
  </g>
  <g>
    <rect x="325" y="993" width="54" height="42" fill="none" fill-opacity="0" stroke="#B0813B" stroke-width="1" stroke-opacity="0.5"/>
  </g>
  <g>
    <rect x="325" y="993" width="54" height="42" fill="none" fill-opacity="0" stroke="#3B72A8" stroke-width="1" stroke-opacity="0.5"/>
  </g>
  <g>
    <path d="M484,972 H680 A42,42 0 0 1 722,1014 V1014 A42,42 0 0 1 680,1056 H484 A42,42 0 0 1 442,1014 V1014 A42,42 0 0 1 484,972 Z" fill="none" fill-opacity="0" stroke="#C5C6CA" stroke-width="1.5" stroke-opacity="1"/>
    <text x="445" y="984" font-family="system-ui, sans-serif" font-size="9" fill="#C5C6CA">◻ #FFC5C6CA</text>
  </g>
  <g>
    <rect x="463" y="972" width="238" height="84" fill="none" fill-opacity="0" stroke="#8E6BA8" stroke-width="1" stroke-opacity="0.5"/>
  </g>
  <g>
    <rect x="484" y="993" width="196" height="42" fill="none" fill-opacity="0" stroke="#B0813B" stroke-width="1" stroke-opacity="0.5"/>
  </g>
  <g>
    <rect x="484" y="993" width="196" height="42" fill="none" fill-opacity="0" stroke="#3B72A8" stroke-width="1" stroke-opacity="0.5"/>
  </g>
  <g>
    <path d="M126,1119 H341 A42,42 0 0 1 383,1161 V1161 A42,42 0 0 1 341,1203 H126 A42,42 0 0 1 84,1161 V1161 A42,42 0 0 1 126,1119 Z" fill="none" fill-opacity="0" stroke="#C5C6CA" stroke-width="1.5" stroke-opacity="1"/>
    <text x="87" y="1131" font-family="system-ui, sans-serif" font-size="9" fill="#C5C6CA">◻ #FFC5C6CA</text>
  </g>
  <g>
    <rect x="105" y="1119" width="257" height="84" fill="none" fill-opacity="0" stroke="#8E6BA8" stroke-width="1" stroke-opacity="0.5"/>
  </g>
  <g>
    <rect x="126" y="1140" width="215" height="42" fill="none" fill-opacity="0" stroke="#B0813B" stroke-width="1" stroke-opacity="0.5"/>
  </g>
  <g>
    <rect x="126" y="1140" width="215" height="42" fill="none" fill-opacity="0" stroke="#3B72A8" stroke-width="1" stroke-opacity="0.5"/>
  </g>
  <g>
    <path d="M446,1119 H631 A42,42 0 0 1 673,1161 V1161 A42,42 0 0 1 631,1203 H446 A42,42 0 0 1 404,1161 V1161 A42,42 0 0 1 446,1119 Z" fill="none" fill-opacity="0" stroke="#C5C6CA" stroke-width="1.5" stroke-opacity="1"/>
    <text x="407" y="1131" font-family="system-ui, sans-serif" font-size="9" fill="#C5C6CA">◻ #FFC5C6CA</text>
  </g>
  <g>
    <rect x="425" y="1119" width="227" height="84" fill="none" fill-opacity="0" stroke="#8E6BA8" stroke-width="1" stroke-opacity="0.5"/>
  </g>
  <g>
    <rect x="446" y="1140" width="185" height="42" fill="none" fill-opacity="0" stroke="#B0813B" stroke-width="1" stroke-opacity="0.5"/>
  </g>
  <g>
    <rect x="446" y="1140" width="185" height="42" fill="none" fill-opacity="0" stroke="#3B72A8" stroke-width="1" stroke-opacity="0.5"/>
  </g>
  <g>
    <path d="M736,1119 H807 A42,42 0 0 1 849,1161 V1161 A42,42 0 0 1 807,1203 H736 A42,42 0 0 1 694,1161 V1161 A42,42 0 0 1 736,1119 Z" fill="#E4F8F5" fill-opacity="1" stroke="#000000" stroke-width="1.5" stroke-opacity="1"/>
    <text x="697" y="1131" font-family="system-ui, sans-serif" font-size="9" fill="#000000">#FFE4F8F5</text>
  </g>
  <g>
    <rect x="715" y="1119" width="113" height="84" fill="none" fill-opacity="0" stroke="#8E6BA8" stroke-width="1" stroke-opacity="0.5"/>
  </g>
  <g>
    <rect x="736" y="1140" width="71" height="42" fill="none" fill-opacity="0" stroke="#B0813B" stroke-width="1" stroke-opacity="0.5"/>
  </g>
  <g>
    <rect x="736" y="1140" width="71" height="42" fill="none" fill-opacity="0" stroke="#3B72A8" stroke-width="1" stroke-opacity="0.5"/>
  </g>
  <g>
    <path d="M126,1266 H231 A42,42 0 0 1 273,1308 V1308 A42,42 0 0 1 231,1350 H126 A42,42 0 0 1 84,1308 V1308 A42,42 0 0 1 126,1266 Z" fill="none" fill-opacity="0" stroke="#C5C6CA" stroke-width="1.5" stroke-opacity="1"/>
    <text x="87" y="1278" font-family="system-ui, sans-serif" font-size="9" fill="#C5C6CA">◻ #FFC5C6CA</text>
  </g>
  <g>
    <rect x="105" y="1266" width="147" height="84" fill="none" fill-opacity="0" stroke="#8E6BA8" stroke-width="1" stroke-opacity="0.5"/>
  </g>
  <g>
    <rect x="126" y="1287" width="105" height="42" fill="none" fill-opacity="0" stroke="#B0813B" stroke-width="1" stroke-opacity="0.5"/>
  </g>
  <g>
    <rect x="126" y="1287" width="105" height="42" fill="none" fill-opacity="0" stroke="#3B72A8" stroke-width="1" stroke-opacity="0.5"/>
  </g>
  <g>
    <path d="M84,1445 H997 A42,42 0 0 1 1039,1487 V1745 A42,42 0 0 1 997,1787 H84 A42,42 0 0 1 42,1745 V1487 A42,42 0 0 1 84,1445 Z" fill="#FAFAFA" fill-opacity="1" stroke="#A85B6B" stroke-width="1.5" stroke-opacity="1"/>
    <text x="45" y="1457" font-family="system-ui, sans-serif" font-size="9" fill="#A85B6B">#FFFAFAFA</text>
  </g>
  <g>
    <rect x="42" y="1445" width="997" height="342" fill="none" fill-opacity="0" stroke="#4F8A4A" stroke-width="1" stroke-opacity="0.5"/>
  </g>
  <g>
    <rect x="84" y="1487" width="913" height="258" fill="none" fill-opacity="0" stroke="#7A7A33" stroke-width="1" stroke-opacity="0.5"/>
  </g>
  <g>
    <rect x="84" y="1487" width="418" height="53" fill="none" fill-opacity="0" stroke="#5B6470" stroke-width="1" stroke-opacity="0.5"/>
  </g>
  <g>
    <rect x="84" y="1545" width="742" height="42" fill="none" fill-opacity="0" stroke="#5B6470" stroke-width="1" stroke-opacity="0.5"/>
  </g>
  <g>
    <rect x="84" y="1619" width="913" height="126" fill="none" fill-opacity="0" stroke="#5B6470" stroke-width="1" stroke-opacity="0.5"/>
  </g>
  <g>
    <path d="M126,1640 H197 A42,42 0 0 1 239,1682 V1682 A42,42 0 0 1 197,1724 H126 A42,42 0 0 1 84,1682 V1682 A42,42 0 0 1 126,1640 Z" fill="none" fill-opacity="0" stroke="#C5C6CA" stroke-width="1.5" stroke-opacity="1"/>
    <text x="87" y="1652" font-family="system-ui, sans-serif" font-size="9" fill="#C5C6CA">◻ #FFC5C6CA</text>
  </g>
  <g>
    <rect x="105" y="1640" width="113" height="84" fill="none" fill-opacity="0" stroke="#8E6BA8" stroke-width="1" stroke-opacity="0.5"/>
  </g>
  <g>
    <rect x="126" y="1661" width="71" height="42" fill="none" fill-opacity="0" stroke="#B0813B" stroke-width="1" stroke-opacity="0.5"/>
  </g>
  <g>
    <rect x="126" y="1661" width="71" height="42" fill="none" fill-opacity="0" stroke="#3B72A8" stroke-width="1" stroke-opacity="0.5"/>
  </g>
  <g>
    <path d="M302,1640 H398 A42,42 0 0 1 440,1682 V1682 A42,42 0 0 1 398,1724 H302 A42,42 0 0 1 260,1682 V1682 A42,42 0 0 1 302,1640 Z" fill="#E4F8F5" fill-opacity="1" stroke="#000000" stroke-width="1.5" stroke-opacity="1"/>
    <text x="263" y="1652" font-family="system-ui, sans-serif" font-size="9" fill="#000000">#FFE4F8F5</text>
  </g>
  <g>
    <rect x="281" y="1640" width="138" height="84" fill="none" fill-opacity="0" stroke="#8E6BA8" stroke-width="1" stroke-opacity="0.5"/>
  </g>
  <g>
    <rect x="302" y="1661" width="96" height="42" fill="none" fill-opacity="0" stroke="#B0813B" stroke-width="1" stroke-opacity="0.5"/>
  </g>
  <g>
    <rect x="302" y="1661" width="96" height="42" fill="none" fill-opacity="0" stroke="#3B72A8" stroke-width="1" stroke-opacity="0.5"/>
  </g>
  <g>
    <path d="M503,1640 H557 A42,42 0 0 1 599,1682 V1682 A42,42 0 0 1 557,1724 H503 A42,42 0 0 1 461,1682 V1682 A42,42 0 0 1 503,1640 Z" fill="none" fill-opacity="0" stroke="#C5C6CA" stroke-width="1.5" stroke-opacity="1"/>
    <text x="464" y="1652" font-family="system-ui, sans-serif" font-size="9" fill="#C5C6CA">◻ #FFC5C6CA</text>
  </g>
  <g>
    <rect x="482" y="1640" width="96" height="84" fill="none" fill-opacity="0" stroke="#8E6BA8" stroke-width="1" stroke-opacity="0.5"/>
  </g>
  <g>
    <rect x="503" y="1661" width="54" height="42" fill="none" fill-opacity="0" stroke="#B0813B" stroke-width="1" stroke-opacity="0.5"/>
  </g>
  <g>
    <rect x="503" y="1661" width="54" height="42" fill="none" fill-opacity="0" stroke="#3B72A8" stroke-width="1" stroke-opacity="0.5"/>
  </g>
  <g>
    <path d="M662,1640 H767 A42,42 0 0 1 809,1682 V1682 A42,42 0 0 1 767,1724 H662 A42,42 0 0 1 620,1682 V1682 A42,42 0 0 1 662,1640 Z" fill="none" fill-opacity="0" stroke="#C5C6CA" stroke-width="1.5" stroke-opacity="1"/>
    <text x="623" y="1652" font-family="system-ui, sans-serif" font-size="9" fill="#C5C6CA">◻ #FFC5C6CA</text>
  </g>
  <g>
    <rect x="641" y="1640" width="147" height="84" fill="none" fill-opacity="0" stroke="#8E6BA8" stroke-width="1" stroke-opacity="0.5"/>
  </g>
  <g>
    <rect x="662" y="1661" width="105" height="42" fill="none" fill-opacity="0" stroke="#B0813B" stroke-width="1" stroke-opacity="0.5"/>
  </g>
  <g>
    <rect x="662" y="1661" width="105" height="42" fill="none" fill-opacity="0" stroke="#3B72A8" stroke-width="1" stroke-opacity="0.5"/>
  </g>
  <g>
    <path d="M84,1819 H997 A42,42 0 0 1 1039,1861 V2266 A42,42 0 0 1 997,2308 H84 A42,42 0 0 1 42,2266 V1861 A42,42 0 0 1 84,1819 Z" fill="#FAFAFA" fill-opacity="1" stroke="#A85B6B" stroke-width="1.5" stroke-opacity="1"/>
    <text x="45" y="1831" font-family="system-ui, sans-serif" font-size="9" fill="#A85B6B">#FFFAFAFA</text>
  </g>
  <g>
    <rect x="42" y="1819" width="997" height="489" fill="none" fill-opacity="0" stroke="#4F8A4A" stroke-width="1" stroke-opacity="0.5"/>
  </g>
  <g>
    <rect x="84" y="1861" width="913" height="405" fill="none" fill-opacity="0" stroke="#7A7A33" stroke-width="1" stroke-opacity="0.5"/>
  </g>
  <g>
    <rect x="84" y="1861" width="226" height="53" fill="none" fill-opacity="0" stroke="#5B6470" stroke-width="1" stroke-opacity="0.5"/>
  </g>
  <g>
    <rect x="84" y="1919" width="772" height="42" fill="none" fill-opacity="0" stroke="#5B6470" stroke-width="1" stroke-opacity="0.5"/>
  </g>
  <g>
    <rect x="84" y="1993" width="913" height="273" fill="none" fill-opacity="0" stroke="#5B6470" stroke-width="1" stroke-opacity="0.5"/>
  </g>
  <g>
    <path d="M126,2014 H414 A42,42 0 0 1 456,2056 V2056 A42,42 0 0 1 414,2098 H126 A42,42 0 0 1 84,2056 V2056 A42,42 0 0 1 126,2014 Z" fill="#E4F8F5" fill-opacity="1" stroke="#000000" stroke-width="1.5" stroke-opacity="1"/>
    <text x="87" y="2026" font-family="system-ui, sans-serif" font-size="9" fill="#000000">#FFE4F8F5</text>
  </g>
  <g>
    <rect x="105" y="2014" width="330" height="84" fill="none" fill-opacity="0" stroke="#8E6BA8" stroke-width="1" stroke-opacity="0.5"/>
  </g>
  <g>
    <rect x="126" y="2035" width="288" height="42" fill="none" fill-opacity="0" stroke="#B0813B" stroke-width="1" stroke-opacity="0.5"/>
  </g>
  <g>
    <rect x="126" y="2035" width="288" height="42" fill="none" fill-opacity="0" stroke="#3B72A8" stroke-width="1" stroke-opacity="0.5"/>
  </g>
  <g>
    <path d="M519,2014 H702 A42,42 0 0 1 744,2056 V2056 A42,42 0 0 1 702,2098 H519 A42,42 0 0 1 477,2056 V2056 A42,42 0 0 1 519,2014 Z" fill="none" fill-opacity="0" stroke="#C5C6CA" stroke-width="1.5" stroke-opacity="1"/>
    <text x="480" y="2026" font-family="system-ui, sans-serif" font-size="9" fill="#C5C6CA">◻ #FFC5C6CA</text>
  </g>
  <g>
    <rect x="498" y="2014" width="225" height="84" fill="none" fill-opacity="0" stroke="#8E6BA8" stroke-width="1" stroke-opacity="0.5"/>
  </g>
  <g>
    <rect x="519" y="2035" width="183" height="42" fill="none" fill-opacity="0" stroke="#B0813B" stroke-width="1" stroke-opacity="0.5"/>
  </g>
  <g>
    <rect x="519" y="2035" width="183" height="42" fill="none" fill-opacity="0" stroke="#3B72A8" stroke-width="1" stroke-opacity="0.5"/>
  </g>
  <g>
    <path d="M126,2161 H363 A42,42 0 0 1 405,2203 V2203 A42,42 0 0 1 363,2245 H126 A42,42 0 0 1 84,2203 V2203 A42,42 0 0 1 126,2161 Z" fill="none" fill-opacity="0" stroke="#C5C6CA" stroke-width="1.5" stroke-opacity="1"/>
    <text x="87" y="2173" font-family="system-ui, sans-serif" font-size="9" fill="#C5C6CA">◻ #FFC5C6CA</text>
  </g>
  <g>
    <rect x="105" y="2161" width="279" height="84" fill="none" fill-opacity="0" stroke="#8E6BA8" stroke-width="1" stroke-opacity="0.5"/>
  </g>
  <g>
    <rect x="126" y="2182" width="237" height="42" fill="none" fill-opacity="0" stroke="#B0813B" stroke-width="1" stroke-opacity="0.5"/>
  </g>
  <g>
    <rect x="126" y="2182" width="237" height="42" fill="none" fill-opacity="0" stroke="#3B72A8" stroke-width="1" stroke-opacity="0.5"/>
  </g>
  <g>
    <path d="M72.5,2340 H1008.5 A30.5,30.5 0 0 1 1039,2370.5 V2370.5 A30.5,30.5 0 0 1 1008.5,2401 H72.5 A30.5,30.5 0 0 1 42,2370.5 V2370.5 A30.5,30.5 0 0 1 72.5,2340 Z" fill="#FAFAFA" fill-opacity="1" stroke="#A85B6B" stroke-width="1.5" stroke-opacity="1"/>
    <text x="45" y="2352" font-family="system-ui, sans-serif" font-size="9" fill="#A85B6B">#FFFAFAFA</text>
  </g>
  <g>
    <rect x="42" y="2340" width="997" height="61" fill="none" fill-opacity="0" stroke="#4F8A4A" stroke-width="1" stroke-opacity="0.5"/>
  </g>
</svg>
