<svg xmlns="http://www.w3.org/2000/svg" viewBox="0 0 1081 2401" width="1081" height="2401" role="img" aria-label="Tabs layout wireframe">
  <title>Tabs — layout wireframe (slots + tokens)</title>
  <rect width="1081" height="2401" fill="#ffffff"/>
  <g>
    <rect x="0" y="0" width="1081" height="2401" fill="none" fill-opacity="0" stroke="#5B6470" stroke-width="1" stroke-opacity="0.5"/>
  </g>
  <g>
    <rect x="0" y="0" width="1081" height="2401" fill="none" fill-opacity="0" stroke="#2E7D6B" stroke-width="1" stroke-opacity="0.5"/>
  </g>
  <g>
    <rect x="0" y="0" width="1081" height="2401" fill="#FFFFFF" fill-opacity="1" stroke="#8E6BA8" stroke-width="1.5" stroke-opacity="1"/>
    <text x="3" y="12" font-family="system-ui, sans-serif" font-size="9" fill="#8E6BA8">#FFFFFFFF</text>
  </g>
  <g>
    <rect x="42" y="0" width="997" height="2401" fill="none" fill-opacity="0" stroke="#B0813B" stroke-width="1" stroke-opacity="0.5"/>
  </g>
  <g>
    <path d="M84,21 H997 A42,42 0 0 1 1039,63 V609 A42,42 0 0 1 997,651 H84 A42,42 0 0 1 42,609 V63 A42,42 0 0 1 84,21 Z" fill="#FAFAFA" fill-opacity="1" stroke="#3B72A8" stroke-width="1.5" stroke-opacity="1"/>
    <text x="45" y="33" font-family="system-ui, sans-serif" font-size="9" fill="#3B72A8">#FFFAFAFA  pad ·</text>
  </g>
  <g>
    <rect x="42" y="21" width="997" height="630" fill="none" fill-opacity="0" stroke="#A85B6B" stroke-width="1" stroke-opacity="0.5"/>
  </g>
  <g>
    <rect x="84" y="63" width="913" height="546" fill="none" fill-opacity="0" stroke="#4F8A4A" stroke-width="1" stroke-opacity="0.5"/>
  </g>
  <g>
    <rect x="84" y="116" width="913" height="441" fill="none" fill-opacity="0" stroke="#7A7A33" stroke-width="1" stroke-opacity="0.5"/>
  </g>
  <g>
    <rect x="84" y="116" width="913" height="441" fill="none" fill-opacity="0" stroke="#5B6470" stroke-width="1" stroke-opacity="0.5"/>
  </g>
  <g>
    <rect x="84" y="116" width="913" height="126" fill="none" fill-opacity="0" stroke="#2E7D6B" stroke-width="1" stroke-opacity="0.5"/>
  </g>
  <g>
    <rect x="84" y="116" width="913" height="126" fill="none" fill-opacity="0" stroke="#8E6BA8" stroke-width="1" stroke-opacity="0.5"/>
  </g>
  <g>
    <path d="M115.5,116 H356.5 A31.5,31.5 0 0 1 388,147.5 V242 A0,0 0 0 1 388,242 H84 A0,0 0 0 1 84,242 V147.5 A31.5,31.5 0 0 1 115.5,116 Z" fill="none" fill-opacity="0" stroke="#B0813B" stroke-width="1.5" stroke-opacity="1"/>
  </g>
  <g>
    <rect x="119" y="116" width="235" height="126" fill="none" fill-opacity="0" stroke="#3B72A8" stroke-width="1" stroke-opacity="0.5"/>
  </g>
  <g>
    <rect x="161" y="152" width="151" height="53" fill="none" fill-opacity="0" stroke="#A85B6B" stroke-width="1" stroke-opacity="0.5"/>
  </g>
  <g>
    <rect x="161" y="152" width="151" height="53" fill="none" fill-opacity="0" stroke="#4F8A4A" stroke-width="1" stroke-opacity="0.5"/>
  </g>
  <g>
    <path d="M419.5,116 H660.5 A31.5,31.5 0 0 1 692,147.5 V242 A0,0 0 0 1 692,242 H388 A0,0 0 0 1 388,242 V147.5 A31.5,31.5 0 0 1 419.5,116 Z" fill="none" fill-opacity="0" stroke="#B0813B" stroke-width="1.5" stroke-opacity="1"/>
  </g>
  <g>
    <rect x="441" y="116" width="199" height="126" fill="none" fill-opacity="0" stroke="#3B72A8" stroke-width="1" stroke-opacity="0.5"/>
  </g>
  <g>
    <rect x="483" y="152" width="115" height="53" fill="none" fill-opacity="0" stroke="#A85B6B" stroke-width="1" stroke-opacity="0.5"/>
  </g>
  <g>
    <rect x="483" y="152" width="115" height="53" fill="none" fill-opacity="0" stroke="#4F8A4A" stroke-width="1" stroke-opacity="0.5"/>
  </g>
  <g>
    <path d="M723.5,116 H964.5 A31.5,31.5 0 0 1 996,147.5 V242 A0,0 0 0 1 996,242 H692 A0,0 0 0 1 692,242 V147.5 A31.5,31.5 0 0 1 723.5,116 Z" fill="none" fill-opacity="0" stroke="#B0813B" stroke-width="1.5" stroke-opacity="1"/>
  </g>
  <g>
    <rect x="734" y="116" width="220" height="126" fill="none" fill-opacity="0" stroke="#3B72A8" stroke-width="1" stroke-opacity="0.5"/>
  </g>
  <g>
    <rect x="776" y="152" width="136" height="53" fill="none" fill-opacity="0" stroke="#A85B6B" stroke-width="1" stroke-opacity="0.5"/>
  </g>
  <g>
    <rect x="776" y="152" width="136" height="53" fill="none" fill-opacity="0" stroke="#4F8A4A" stroke-width="1" stroke-opacity="0.5"/>
  </g>
  <g>
    <rect x="84" y="239" width="913" height="3" fill="none" fill-opacity="0" stroke="#B0813B" stroke-width="1" stroke-opacity="0.5"/>
  </g>
  <g>
    <path d="M164,234 H307 A4,4 0 0 1 311,238 V238 A4,4 0 0 1 307,242 H164 A4,4 0 0 1 160,238 V238 A4,4 0 0 1 164,234 Z" fill="#144D2A" fill-opacity="1" stroke="#B0813B" stroke-width="1.5" stroke-opacity="1"/>
    <text x="163" y="246" font-family="system-ui, sans-serif" font-size="9" fill="#B0813B">#FF144D2A</text>
  </g>
  <g>
    <rect x="84" y="284" width="913" height="273" fill="none" fill-opacity="0" stroke="#2E7D6B" stroke-width="1" stroke-opacity="0.5"/>
  </g>
  <g>
    <rect x="84" y="284" width="913" height="273" fill="none" fill-opacity="0" stroke="#8E6BA8" stroke-width="1" stroke-opacity="0.5"/>
  </g>
  <g>
    <path d="M115.5,284 H965.5 A31.5,31.5 0 0 1 997,315.5 V525.5 A31.5,31.5 0 0 1 965.5,557 H115.5 A31.5,31.5 0 0 1 84,525.5 V315.5 A31.5,31.5 0 0 1 115.5,284 Z" fill="#FFFFFF" fill-opacity="1" stroke="#C5C6CA" stroke-width="1.5" stroke-opacity="1"/>
    <text x="87" y="296" font-family="system-ui, sans-serif" font-size="9" fill="#C5C6CA">#FFFFFFFF</text>
  </g>
  <g>
    <rect x="84" y="284" width="913" height="273" fill="none" fill-opacity="0" stroke="#3B72A8" stroke-width="1" stroke-opacity="0.5"/>
  </g>
  <g>
    <rect x="84" y="284" width="913" height="273" fill="none" fill-opacity="0" stroke="#A85B6B" stroke-width="1" stroke-opacity="0.5"/>
  </g>
  <g>
    <rect x="84" y="284" width="913" height="273" fill="none" fill-opacity="0" stroke="#4F8A4A" stroke-width="1" stroke-opacity="0.5"/>
  </g>
  <g>
    <rect x="126" y="326" width="829" height="189" fill="none" fill-opacity="0" stroke="#7A7A33" stroke-width="1" stroke-opacity="0.5"/>
  </g>
  <g>
    <rect x="42" y="693" width="95" height="63" fill="none" fill-opacity="0" stroke="#3B72A8" stroke-width="1" stroke-opacity="0.5"/>
  </g>
  <g>
    <rect x="42" y="777" width="997" height="342" fill="none" fill-opacity="0" stroke="#3B72A8" stroke-width="1" stroke-opacity="0.5"/>
  </g>
  <g>
    <path d="M84,777 H997 A42,42 0 0 1 1039,819 V1077 A42,42 0 0 1 997,1119 H84 A42,42 0 0 1 42,1077 V819 A42,42 0 0 1 84,777 Z" fill="#FAFAFA" fill-opacity="1" stroke="#A85B6B" stroke-width="1.5" stroke-opacity="1"/>
    <text x="45" y="789" font-family="system-ui, sans-serif" font-size="9" fill="#A85B6B">#FFFAFAFA</text>
  </g>
  <g>
    <rect x="42" y="777" width="997" height="342" fill="none" fill-opacity="0" stroke="#4F8A4A" stroke-width="1" stroke-opacity="0.5"/>
  </g>
  <g>
    <rect x="84" y="819" width="913" height="258" fill="none" fill-opacity="0" stroke="#7A7A33" stroke-width="1" stroke-opacity="0.5"/>
  </g>
  <g>
    <rect x="84" y="819" width="264" height="53" fill="none" fill-opacity="0" stroke="#5B6470" stroke-width="1" stroke-opacity="0.5"/>
  </g>
  <g>
    <rect x="84" y="877" width="494" height="42" fill="none" fill-opacity="0" stroke="#5B6470" stroke-width="1" stroke-opacity="0.5"/>
  </g>
  <g>
    <rect x="84" y="951" width="913" height="126" fill="none" fill-opacity="0" stroke="#5B6470" stroke-width="1" stroke-opacity="0.5"/>
  </g>
  <g>
    <path d="M126,972 H226 A42,42 0 0 1 268,1014 V1014 A42,42 0 0 1 226,1056 H126 A42,42 0 0 1 84,1014 V1014 A42,42 0 0 1 126,972 Z" fill="none" fill-opacity="0" stroke="#C5C6CA" stroke-width="1.5" stroke-opacity="1"/>
    <text x="87" y="984" font-family="system-ui, sans-serif" font-size="9" fill="#C5C6CA">◻ #FFC5C6CA</text>
  </g>
  <g>
    <rect x="105" y="972" width="142" height="84" fill="none" fill-opacity="0" stroke="#8E6BA8" stroke-width="1" stroke-opacity="0.5"/>
  </g>
  <g>
    <rect x="126" y="993" width="100" height="42" fill="none" fill-opacity="0" stroke="#B0813B" stroke-width="1" stroke-opacity="0.5"/>
  </g>
  <g>
    <rect x="126" y="993" width="100" height="42" fill="none" fill-opacity="0" stroke="#3B72A8" stroke-width="1" stroke-opacity="0.5"/>
  </g>
  <g>
    <path d="M331,972 H431 A42,42 0 0 1 473,1014 V1014 A42,42 0 0 1 431,1056 H331 A42,42 0 0 1 289,1014 V1014 A42,42 0 0 1 331,972 Z" fill="#E4F8F5" fill-opacity="1" stroke="#000000" stroke-width="1.5" stroke-opacity="1"/>
    <text x="292" y="984" font-family="system-ui, sans-serif" font-size="9" fill="#000000">#FFE4F8F5</text>
  </g>
  <g>
    <rect x="310" y="972" width="142" height="84" fill="none" fill-opacity="0" stroke="#8E6BA8" stroke-width="1" stroke-opacity="0.5"/>
  </g>
  <g>
    <rect x="331" y="993" width="100" height="42" fill="none" fill-opacity="0" stroke="#B0813B" stroke-width="1" stroke-opacity="0.5"/>
  </g>
  <g>
    <rect x="331" y="993" width="100" height="42" fill="none" fill-opacity="0" stroke="#3B72A8" stroke-width="1" stroke-opacity="0.5"/>
  </g>
</svg>
