<svg xmlns="http://www.w3.org/2000/svg" viewBox="0 0 1081 2401" width="1081" height="2401" role="img" aria-label="TextField layout wireframe">
  <title>TextField — layout wireframe (slots + tokens)</title>
  <rect width="1081" height="2401" fill="#ffffff"/>
  <g>
    <rect x="0" y="0" width="1081" height="2401" fill="none" fill-opacity="0" stroke="#5B6470" stroke-width="1" stroke-opacity="0.5"/>
  </g>
  <g>
    <rect x="0" y="0" width="1081" height="2401" fill="none" fill-opacity="0" stroke="#2E7D6B" stroke-width="1" stroke-opacity="0.5"/>
  </g>
  <g>
    <rect x="0" y="0" width="1081" height="2401" fill="#FFFFFF" fill-opacity="1" stroke="#8E6BA8" stroke-width="1.5" stroke-opacity="1"/>
    <text x="3" y="12" font-family="system-ui, sans-serif" font-size="9" fill="#8E6BA8">#FFFFFFFF</text>
  </g>
  <g>
    <rect x="42" y="0" width="997" height="2401" fill="none" fill-opacity="0" stroke="#B0813B" stroke-width="1" stroke-opacity="0.5"/>
  </g>
  <g>
    <path d="M84,21 H997 A42,42 0 0 1 1039,63 V609 A42,42 0 0 1 997,651 H84 A42,42 0 0 1 42,609 V63 A42,42 0 0 1 84,21 Z" fill="#FAFAFA" fill-opacity="1" stroke="#3B72A8" stroke-width="1.5" stroke-opacity="1"/>
    <text x="45" y="33" font-family="system-ui, sans-serif" font-size="9" fill="#3B72A8">#FFFAFAFA  pad ·</text>
  </g>
  <g>
    <rect x="42" y="21" width="997" height="630" fill="none" fill-opacity="0" stroke="#A85B6B" stroke-width="1" stroke-opacity="0.5"/>
  </g>
  <g>
    <rect x="84" y="63" width="913" height="546" fill="none" fill-opacity="0" stroke="#4F8A4A" stroke-width="1" stroke-opacity="0.5"/>
  </g>
  <g>
    <rect x="173" y="252" width="735" height="168" fill="none" fill-opacity="0" stroke="#7A7A33" stroke-width="1" stroke-opacity="0.5"/>
  </g>
  <g>
    <rect x="173" y="273" width="735" height="147" fill="none" fill-opacity="0" stroke="#5B6470" stroke-width="1" stroke-opacity="0.5"/>
  </g>
  <g>
    <rect x="173" y="273" width="735" height="147" fill="none" fill-opacity="0" stroke="#2E7D6B" stroke-width="1" stroke-opacity="0.5"/>
  </g>
  <g>
    <rect x="173" y="273" width="735" height="147" fill="none" fill-opacity="0" stroke="#8E6BA8" stroke-width="1" stroke-opacity="0.5"/>
  </g>
  <g>
    <rect x="173" y="273" width="735" height="147" fill="none" fill-opacity="0" stroke="#B0813B" stroke-width="1" stroke-opacity="0.5"/>
  </g>
  <g>
    <path d="M183.5,273 H897.5 A10.5,10.5 0 0 1 908,283.5 V409.5 A10.5,10.5 0 0 1 897.5,420 H183.5 A10.5,10.5 0 0 1 173,409.5 V283.5 A10.5,10.5 0 0 1 183.5,273 Z" fill="none" fill-opacity="0" stroke="#75777A" stroke-width="1.5" stroke-opacity="1"/>
    <text x="176" y="285" font-family="system-ui, sans-serif" font-size="9" fill="#75777A">◻ #FF75777A</text>
  </g>
  <g>
    <rect x="215" y="252" width="149" height="42" fill="none" fill-opacity="0" stroke="#B0813B" stroke-width="1" stroke-opacity="0.5"/>
  </g>
  <g>
    <rect x="215" y="252" width="149" height="42" fill="none" fill-opacity="0" stroke="#3B72A8" stroke-width="1" stroke-opacity="0.5"/>
  </g>
  <g>
    <rect x="215" y="315" width="651" height="63" fill="none" fill-opacity="0" stroke="#B0813B" stroke-width="1" stroke-opacity="0.5"/>
  </g>
  <g>
    <rect x="215" y="315" width="651" height="63" fill="none" fill-opacity="0" stroke="#3B72A8" stroke-width="1" stroke-opacity="0.5"/>
  </g>
  <g>
    <rect x="215" y="315" width="651" height="63" fill="none" fill-opacity="0" stroke="#A85B6B" stroke-width="1" stroke-opacity="0.5"/>
  </g>
  <g>
    <rect x="42" y="693" width="180" height="63" fill="none" fill-opacity="0" stroke="#3B72A8" stroke-width="1" stroke-opacity="0.5"/>
  </g>
  <g>
    <rect x="42" y="777" width="997" height="1624" fill="none" fill-opacity="0" stroke="#3B72A8" stroke-width="1" stroke-opacity="0.5"/>
  </g>
  <g>
    <path d="M84,777 H997 A42,42 0 0 1 1039,819 V1224 A42,42 0 0 1 997,1266 H84 A42,42 0 0 1 42,1224 V819 A42,42 0 0 1 84,777 Z" fill="#FAFAFA" fill-opacity="1" stroke="#A85B6B" stroke-width="1.5" stroke-opacity="1"/>
    <text x="45" y="789" font-family="system-ui, sans-serif" font-size="9" fill="#A85B6B">#FFFAFAFA</text>
  </g>
  <g>
    <rect x="42" y="777" width="997" height="489" fill="none" fill-opacity="0" stroke="#4F8A4A" stroke-width="1" stroke-opacity="0.5"/>
  </g>
  <g>
    <rect x="84" y="819" width="913" height="405" fill="none" fill-opacity="0" stroke="#7A7A33" stroke-width="1" stroke-opacity="0.5"/>
  </g>
  <g>
    <rect x="84" y="819" width="277" height="53" fill="none" fill-opacity="0" stroke="#5B6470" stroke-width="1" stroke-opacity="0.5"/>
  </g>
  <g>
    <rect x="84" y="877" width="526" height="42" fill="none" fill-opacity="0" stroke="#5B6470" stroke-width="1" stroke-opacity="0.5"/>
  </g>
  <g>
    <rect x="84" y="951" width="913" height="273" fill="none" fill-opacity="0" stroke="#5B6470" stroke-width="1" stroke-opacity="0.5"/>
  </g>
  <g>
    <path d="M126,972 H255 A42,42 0 0 1 297,1014 V1014 A42,42 0 0 1 255,1056 H126 A42,42 0 0 1 84,1014 V1014 A42,42 0 0 1 126,972 Z" fill="none" fill-opacity="0" stroke="#C5C6CA" stroke-width="1.5" stroke-opacity="1"/>
    <text x="87" y="984" font-family="system-ui, sans-serif" font-size="9" fill="#C5C6CA">◻ #FFC5C6CA</text>
  </g>
  <g>
    <rect x="105" y="972" width="171" height="84" fill="none" fill-opacity="0" stroke="#8E6BA8" stroke-width="1" stroke-opacity="0.5"/>
  </g>
  <g>
    <rect x="126" y="993" width="129" height="42" fill="none" fill-opacity="0" stroke="#B0813B" stroke-width="1" stroke-opacity="0.5"/>
  </g>
  <g>
    <rect x="126" y="993" width="129" height="42" fill="none" fill-opacity="0" stroke="#3B72A8" stroke-width="1" stroke-opacity="0.5"/>
  </g>
  <g>
    <path d="M360,972 H473 A42,42 0 0 1 515,1014 V1014 A42,42 0 0 1 473,1056 H360 A42,42 0 0 1 318,1014 V1014 A42,42 0 0 1 360,972 Z" fill="none" fill-opacity="0" stroke="#C5C6CA" stroke-width="1.5" stroke-opacity="1"/>
    <text x="321" y="984" font-family="system-ui, sans-serif" font-size="9" fill="#C5C6CA">◻ #FFC5C6CA</text>
  </g>
  <g>
    <rect x="339" y="972" width="155" height="84" fill="none" fill-opacity="0" stroke="#8E6BA8" stroke-width="1" stroke-opacity="0.5"/>
  </g>
  <g>
    <rect x="360" y="993" width="113" height="42" fill="none" fill-opacity="0" stroke="#B0813B" stroke-width="1" stroke-opacity="0.5"/>
  </g>
  <g>
    <rect x="360" y="993" width="113" height="42" fill="none" fill-opacity="0" stroke="#3B72A8" stroke-width="1" stroke-opacity="0.5"/>
  </g>
  <g>
    <path d="M578,972 H723 A42,42 0 0 1 765,1014 V1014 A42,42 0 0 1 723,1056 H578 A42,42 0 0 1 536,1014 V1014 A42,42 0 0 1 578,972 Z" fill="#E4F8F5" fill-opacity="1" stroke="#000000" stroke-width="1.5" stroke-opacity="1"/>
    <text x="539" y="984" font-family="system-ui, sans-serif" font-size="9" fill="#000000">#FFE4F8F5</text>
  </g>
  <g>
    <rect x="557" y="972" width="187" height="84" fill="none" fill-opacity="0" stroke="#8E6BA8" stroke-width="1" stroke-opacity="0.5"/>
  </g>
  <g>
    <rect x="578" y="993" width="145" height="42" fill="none" fill-opacity="0" stroke="#B0813B" stroke-width="1" stroke-opacity="0.5"/>
  </g>
  <g>
    <rect x="578" y="993" width="145" height="42" fill="none" fill-opacity="0" stroke="#3B72A8" stroke-width="1" stroke-opacity="0.5"/>
  </g>
  <g>
    <path d="M126,1119 H264 A42,42 0 0 1 306,1161 V1161 A42,42 0 0 1 264,1203 H126 A42,42 0 0 1 84,1161 V1161 A42,42 0 0 1 126,1119 Z" fill="none" fill-opacity="0" stroke="#C5C6CA" stroke-width="1.5" stroke-opacity="1"/>
    <text x="87" y="1131" font-family="system-ui, sans-serif" font-size="9" fill="#C5C6CA">◻ #FFC5C6CA</text>
  </g>
  <g>
    <rect x="105" y="1119" width="180" height="84" fill="none" fill-opacity="0" stroke="#8E6BA8" stroke-width="1" stroke-opacity="0.5"/>
  </g>
  <g>
    <rect x="126" y="1140" width="138" height="42" fill="none" fill-opacity="0" stroke="#B0813B" stroke-width="1" stroke-opacity="0.5"/>
  </g>
  <g>
    <rect x="126" y="1140" width="138" height="42" fill="none" fill-opacity="0" stroke="#3B72A8" stroke-width="1" stroke-opacity="0.5"/>
  </g>
  <g>
    <path d="M84,1298 H997 A42,42 0 0 1 1039,1340 V1829 A42,42 0 0 1 997,1871 H84 A42,42 0 0 1 42,1829 V1340 A42,42 0 0 1 84,1298 Z" fill="#FAFAFA" fill-opacity="1" stroke="#A85B6B" stroke-width="1.5" stroke-opacity="1"/>
    <text x="45" y="1310" font-family="system-ui, sans-serif" font-size="9" fill="#A85B6B">#FFFAFAFA</text>
  </g>
  <g>
    <rect x="42" y="1298" width="997" height="573" fill="none" fill-opacity="0" stroke="#4F8A4A" stroke-width="1" stroke-opacity="0.5"/>
  </g>
  <g>
    <rect x="84" y="1340" width="913" height="489" fill="none" fill-opacity="0" stroke="#7A7A33" stroke-width="1" stroke-opacity="0.5"/>
  </g>
  <g>
    <rect x="84" y="1340" width="411" height="53" fill="none" fill-opacity="0" stroke="#5B6470" stroke-width="1" stroke-opacity="0.5"/>
  </g>
  <g>
    <rect x="84" y="1398" width="391" height="42" fill="none" fill-opacity="0" stroke="#5B6470" stroke-width="1" stroke-opacity="0.5"/>
  </g>
  <g>
    <rect x="84" y="1472" width="913" height="357" fill="none" fill-opacity="0" stroke="#5B6470" stroke-width="1" stroke-opacity="0.5"/>
  </g>
  <g>
    <rect x="84" y="1493" width="913" height="147" fill="none" fill-opacity="0" stroke="#2E7D6B" stroke-width="1" stroke-opacity="0.5"/>
  </g>
  <g>
    <rect x="84" y="1493" width="913" height="147" fill="none" fill-opacity="0" stroke="#8E6BA8" stroke-width="1" stroke-opacity="0.5"/>
  </g>
  <g>
    <rect x="84" y="1493" width="913" height="147" fill="none" fill-opacity="0" stroke="#B0813B" stroke-width="1" stroke-opacity="0.5"/>
  </g>
  <g>
    <rect x="84" y="1493" width="913" height="147" fill="none" fill-opacity="0" stroke="#3B72A8" stroke-width="1" stroke-opacity="0.5"/>
  </g>
  <g>
    <path d="M115.5,1493 H965.5 A31.5,31.5 0 0 1 997,1524.5 V1608.5 A31.5,31.5 0 0 1 965.5,1640 H115.5 A31.5,31.5 0 0 1 84,1608.5 V1524.5 A31.5,31.5 0 0 1 115.5,1493 Z" fill="none" fill-opacity="0" stroke="#75777A" stroke-width="1.5" stroke-opacity="1"/>
    <text x="87" y="1505" font-family="system-ui, sans-serif" font-size="9" fill="#75777A">◻ #FF75777A</text>
  </g>
  <g>
    <rect x="126" y="1472" width="161" height="42" fill="none" fill-opacity="0" stroke="#3B72A8" stroke-width="1" stroke-opacity="0.5"/>
  </g>
  <g>
    <rect x="126" y="1472" width="161" height="42" fill="none" fill-opacity="0" stroke="#A85B6B" stroke-width="1" stroke-opacity="0.5"/>
  </g>
  <g>
    <rect x="126" y="1535" width="829" height="63" fill="none" fill-opacity="0" stroke="#3B72A8" stroke-width="1" stroke-opacity="0.5"/>
  </g>
  <g>
    <rect x="126" y="1535" width="829" height="63" fill="none" fill-opacity="0" stroke="#A85B6B" stroke-width="1" stroke-opacity="0.5"/>
  </g>
  <g>
    <rect x="126" y="1535" width="829" height="63" fill="none" fill-opacity="0" stroke="#4F8A4A" stroke-width="1" stroke-opacity="0.5"/>
  </g>
  <g>
    <rect x="84" y="1682" width="913" height="147" fill="none" fill-opacity="0" stroke="#2E7D6B" stroke-width="1" stroke-opacity="0.5"/>
  </g>
  <g>
    <rect x="84" y="1682" width="913" height="147" fill="none" fill-opacity="0" stroke="#8E6BA8" stroke-width="1" stroke-opacity="0.5"/>
  </g>
  <g>
    <rect x="84" y="1682" width="913" height="147" fill="none" fill-opacity="0" stroke="#B0813B" stroke-width="1" stroke-opacity="0.5"/>
  </g>
  <g>
    <rect x="84" y="1682" width="913" height="147" fill="none" fill-opacity="0" stroke="#3B72A8" stroke-width="1" stroke-opacity="0.5"/>
  </g>
  <g>
    <path d="M115.5,1682 H965.5 A31.5,31.5 0 0 1 997,1713.5 V1797.5 A31.5,31.5 0 0 1 965.5,1829 H115.5 A31.5,31.5 0 0 1 84,1797.5 V1713.5 A31.5,31.5 0 0 1 115.5,1682 Z" fill="none" fill-opacity="0" stroke="#75777A" stroke-width="1.5" stroke-opacity="1"/>
    <text x="87" y="1694" font-family="system-ui, sans-serif" font-size="9" fill="#75777A">◻ #FF75777A</text>
  </g>
  <g>
    <rect x="126" y="1661" width="175" height="42" fill="none" fill-opacity="0" stroke="#3B72A8" stroke-width="1" stroke-opacity="0.5"/>
  </g>
  <g>
    <rect x="126" y="1661" width="175" height="42" fill="none" fill-opacity="0" stroke="#A85B6B" stroke-width="1" stroke-opacity="0.5"/>
  </g>
  <g>
    <rect x="126" y="1724" width="829" height="63" fill="none" fill-opacity="0" stroke="#3B72A8" stroke-width="1" stroke-opacity="0.5"/>
  </g>
  <g>
    <rect x="126" y="1724" width="829" height="63" fill="none" fill-opacity="0" stroke="#A85B6B" stroke-width="1" stroke-opacity="0.5"/>
  </g>
  <g>
    <rect x="126" y="1724" width="829" height="63" fill="none" fill-opacity="0" stroke="#4F8A4A" stroke-width="1" stroke-opacity="0.5"/>
  </g>
  <g>
    <path d="M84,1903 H997 A42,42 0 0 1 1039,1945 V2359 A42,42 0 0 1 997,2401 H84 A42,42 0 0 1 42,2359 V1945 A42,42 0 0 1 84,1903 Z" fill="#FAFAFA" fill-opacity="1" stroke="#A85B6B" stroke-width="1.5" stroke-opacity="1"/>
    <text x="45" y="1915" font-family="system-ui, sans-serif" font-size="9" fill="#A85B6B">#FFFAFAFA</text>
  </g>
  <g>
    <rect x="42" y="1903" width="997" height="498" fill="none" fill-opacity="0" stroke="#4F8A4A" stroke-width="1" stroke-opacity="0.5"/>
  </g>
  <g>
    <rect x="84" y="1945" width="913" height="414" fill="none" fill-opacity="0" stroke="#7A7A33" stroke-width="1" stroke-opacity="0.5"/>
  </g>
  <g>
    <rect x="84" y="1945" width="295" height="53" fill="none" fill-opacity="0" stroke="#5B6470" stroke-width="1" stroke-opacity="0.5"/>
  </g>
  <g>
    <rect x="84" y="2003" width="534" height="42" fill="none" fill-opacity="0" stroke="#5B6470" stroke-width="1" stroke-opacity="0.5"/>
  </g>
  <g>
    <rect x="84" y="2077" width="913" height="282" fill="none" fill-opacity="0" stroke="#5B6470" stroke-width="1" stroke-opacity="0.5"/>
  </g>
  <g>
    <rect x="84" y="2077" width="913" height="273" fill="none" fill-opacity="0" stroke="#2E7D6B" stroke-width="1" stroke-opacity="0.5"/>
  </g>
  <g>
    <path d="M126,2098 H205 A42,42 0 0 1 247,2140 V2140 A42,42 0 0 1 205,2182 H126 A42,42 0 0 1 84,2140 V2140 A42,42 0 0 1 126,2098 Z" fill="#E4F8F5" fill-opacity="1" stroke="#000000" stroke-width="1.5" stroke-opacity="1"/>
    <text x="87" y="2110" font-family="system-ui, sans-serif" font-size="9" fill="#000000">#FFE4F8F5</text>
  </g>
  <g>
    <rect x="105" y="2098" width="121" height="84" fill="none" fill-opacity="0" stroke="#B0813B" stroke-width="1" stroke-opacity="0.5"/>
  </g>
  <g>
    <rect x="126" y="2119" width="79" height="42" fill="none" fill-opacity="0" stroke="#3B72A8" stroke-width="1" stroke-opacity="0.5"/>
  </g>
  <g>
    <rect x="126" y="2119" width="79" height="42" fill="none" fill-opacity="0" stroke="#A85B6B" stroke-width="1" stroke-opacity="0.5"/>
  </g>
  <g>
    <path d="M310,2098 H395 A42,42 0 0 1 437,2140 V2140 A42,42 0 0 1 395,2182 H310 A42,42 0 0 1 268,2140 V2140 A42,42 0 0 1 310,2098 Z" fill="none" fill-opacity="0" stroke="#C5C6CA" stroke-width="1.5" stroke-opacity="1"/>
    <text x="271" y="2110" font-family="system-ui, sans-serif" font-size="9" fill="#C5C6CA">◻ #FFC5C6CA</text>
  </g>
  <g>
    <rect x="289" y="2098" width="127" height="84" fill="none" fill-opacity="0" stroke="#B0813B" stroke-width="1" stroke-opacity="0.5"/>
  </g>
  <g>
    <rect x="310" y="2119" width="85" height="42" fill="none" fill-opacity="0" stroke="#3B72A8" stroke-width="1" stroke-opacity="0.5"/>
  </g>
  <g>
    <rect x="310" y="2119" width="85" height="42" fill="none" fill-opacity="0" stroke="#A85B6B" stroke-width="1" stroke-opacity="0.5"/>
  </g>
  <g>
    <path d="M500,2098 H681 A42,42 0 0 1 723,2140 V2140 A42,42 0 0 1 681,2182 H500 A42,42 0 0 1 458,2140 V2140 A42,42 0 0 1 500,2098 Z" fill="none" fill-opacity="0" stroke="#C5C6CA" stroke-width="1.5" stroke-opacity="1"/>
    <text x="461" y="2110" font-family="system-ui, sans-serif" font-size="9" fill="#C5C6CA">◻ #FFC5C6CA</text>
  </g>
  <g>
    <rect x="479" y="2098" width="223" height="84" fill="none" fill-opacity="0" stroke="#B0813B" stroke-width="1" stroke-opacity="0.5"/>
  </g>
  <g>
    <rect x="500" y="2119" width="181" height="42" fill="none" fill-opacity="0" stroke="#3B72A8" stroke-width="1" stroke-opacity="0.5"/>
  </g>
  <g>
    <rect x="500" y="2119" width="181" height="42" fill="none" fill-opacity="0" stroke="#A85B6B" stroke-width="1" stroke-opacity="0.5"/>
  </g>
  <g>
    <path d="M126,2245 H337 A42,42 0 0 1 379,2287 V2287 A42,42 0 0 1 337,2329 H126 A42,42 0 0 1 84,2287 V2287 A42,42 0 0 1 126,2245 Z" fill="none" fill-opacity="0" stroke="#C5C6CA" stroke-width="1.5" stroke-opacity="1"/>
    <text x="87" y="2257" font-family="system-ui, sans-serif" font-size="9" fill="#C5C6CA">◻ #FFC5C6CA</text>
  </g>
  <g>
    <rect x="105" y="2245" width="253" height="84" fill="none" fill-opacity="0" stroke="#B0813B" stroke-width="1" stroke-opacity="0.5"/>
  </g>
  <g>
    <rect x="126" y="2266" width="211" height="42" fill="none" fill-opacity="0" stroke="#3B72A8" stroke-width="1" stroke-opacity="0.5"/>
  </g>
  <g>
    <rect x="126" y="2266" width="211" height="42" fill="none" fill-opacity="0" stroke="#A85B6B" stroke-width="1" stroke-opacity="0.5"/>
  </g>
</svg>
