<svg xmlns="http://www.w3.org/2000/svg" viewBox="0 0 1029 616" width="1029" height="616" role="img" aria-label="Video layout wireframe">
  <title>Video — layout wireframe (slots + tokens)</title>
  <rect width="1029" height="616" fill="#ffffff"/>
  <g>
    <rect x="0" y="0" width="1029" height="616" fill="none" fill-opacity="0" stroke="#5B6470" stroke-width="1" stroke-opacity="0.5"/>
  </g>
  <g>
    <rect x="0" y="0" width="1029" height="616" fill="none" fill-opacity="0" stroke="#2E7D6B" stroke-width="1" stroke-opacity="0.5"/>
  </g>
  <g>
    <rect x="0" y="0" width="1029" height="616" fill="#FEF7FF" fill-opacity="1" stroke="#8E6BA8" stroke-width="1.5" stroke-opacity="1"/>
    <text x="3" y="12" font-family="system-ui, sans-serif" font-size="9" fill="#8E6BA8">#FFFEF7FF</text>
  </g>
  <g>
    <rect x="42" y="42" width="945" height="532" fill="none" fill-opacity="0" stroke="#B0813B" stroke-width="1" stroke-opacity="0.5"/>
  </g>
  <g>
    <rect x="42" y="42" width="945" height="532" fill="none" fill-opacity="0" stroke="#3B72A8" stroke-width="1" stroke-opacity="0.5"/>
  </g>
  <g>
    <path d="M73.5,42 H955.5 A31.5,31.5 0 0 1 987,73.5 V542.5 A31.5,31.5 0 0 1 955.5,574 H73.5 A31.5,31.5 0 0 1 42,542.5 V73.5 A31.5,31.5 0 0 1 73.5,42 Z" fill="none" fill-opacity="0" stroke="#A85B6B" stroke-width="1.5" stroke-opacity="1"/>
  </g>
  <g>
    <rect x="42" y="42" width="945" height="532" fill="none" fill-opacity="0" stroke="#4F8A4A" stroke-width="1" stroke-opacity="0.5"/>
  </g>
  <g>
    <path d="M514.5,235 H514.5 A73.5,73.5 0 0 1 588,308.5 V308.5 A73.5,73.5 0 0 1 514.5,382 H514.5 A73.5,73.5 0 0 1 441,308.5 V308.5 A73.5,73.5 0 0 1 514.5,235 Z" fill="#000000" fill-opacity="0.549" stroke="#4F8A4A" stroke-width="1.5" stroke-opacity="1"/>
    <text x="444" y="247" font-family="system-ui, sans-serif" font-size="9" fill="#4F8A4A">#8C000000</text>
  </g>
  <g>
    <rect x="488" y="282" width="53" height="53" fill="none" fill-opacity="0" stroke="#7A7A33" stroke-width="1" stroke-opacity="0.5"/>
  </g>
</svg>
